<svg width="71" height="70" viewBox="0 0 71 70" fill="none" xmlns="http://www.w3.org/2000/svg">
<path fill-rule="evenodd" clip-rule="evenodd" d="M41.6912 0.0692164H49.7357C52.4911 0.0691532 54.8094 0.069099 56.7071 0.225796C58.6921 0.389705 60.583 0.745948 62.379 1.67082C65.1149 3.07963 67.3392 5.3276 68.7332 8.09255C69.6483 9.90771 70.0008 11.8186 70.163 13.8248C70.3181 15.7427 70.318 18.0857 70.3179 20.8704V28.5817C70.318 31.3665 70.3181 33.7094 70.163 35.6273C70.0008 37.6335 69.6483 39.5444 68.7332 41.3596C67.3392 44.1245 65.1149 46.3725 62.379 47.7813C60.583 48.7062 58.6921 49.0624 56.7071 49.2263C54.8094 49.383 52.491 49.383 49.7356 49.3829H25.7125C24.0251 49.3829 22.5024 48.3598 21.8494 46.7872C21.1965 45.2147 21.5408 43.3997 22.7229 42.1828L42.5612 21.7599L48.5405 27.6922L35.6962 40.9149H49.5678C52.5353 40.9149 54.509 40.9116 56.0248 40.7864C57.4917 40.6653 58.1571 40.4515 58.5751 40.2363C59.7343 39.6393 60.6768 38.6868 61.2675 37.5152C61.4805 37.0927 61.6921 36.4202 61.8119 34.9378C61.9358 33.4059 61.939 31.4112 61.939 28.4121V21.04C61.939 18.0409 61.9358 16.0462 61.8119 14.5143C61.6921 13.0319 61.4805 12.3594 61.2675 11.9369C60.6768 10.7654 59.7343 9.81282 58.5751 9.21587C58.1571 9.00062 57.4917 8.7868 56.0248 8.66568C54.509 8.54052 52.5353 8.53723 49.5678 8.53723H41.8603C38.8603 8.53723 36.8636 8.54055 35.3311 8.66772C33.8471 8.79087 33.1762 9.00831 32.7568 9.22625C31.5905 9.83223 30.6461 10.7985 30.0607 11.9844C29.8502 12.4109 29.6432 13.0915 29.5395 14.5927C29.4324 16.143 29.4534 18.1608 29.49 21.1925L29.532 24.6744L21.1537 24.7777L21.1097 21.1248C21.0756 18.3089 21.047 15.9412 21.1809 14.0027C21.321 11.9762 21.6552 10.0434 22.5629 8.20455C23.9443 5.40576 26.1732 3.12543 28.9255 1.69532C30.7339 0.755698 32.6421 0.394356 34.6455 0.228115C36.5617 0.0690985 38.9047 0.0691527 41.6912 0.0692164Z" fill="url(#paint0_linear_901_3770)"/>
<path fill-rule="evenodd" clip-rule="evenodd" d="M41.6912 0.0692164H49.7357C52.4911 0.0691532 54.8094 0.069099 56.7071 0.225796C58.6921 0.389705 60.583 0.745948 62.379 1.67082C65.1149 3.07963 67.3392 5.3276 68.7332 8.09255C69.6483 9.90771 70.0008 11.8186 70.163 13.8248C70.3181 15.7427 70.318 18.0857 70.3179 20.8704V28.5817C70.318 31.3665 70.3181 33.7094 70.163 35.6273C70.0008 37.6335 69.6483 39.5444 68.7332 41.3596C67.3392 44.1245 65.1149 46.3725 62.379 47.7813C60.583 48.7062 58.6921 49.0624 56.7071 49.2263C54.8094 49.383 52.491 49.383 49.7356 49.3829H25.7125C24.0251 49.3829 22.5024 48.3598 21.8494 46.7872C21.1965 45.2147 21.5408 43.3997 22.7229 42.1828L42.5612 21.7599L48.5405 27.6922L35.6962 40.9149H49.5678C52.5353 40.9149 54.509 40.9116 56.0248 40.7864C57.4917 40.6653 58.1571 40.4515 58.5751 40.2363C59.7343 39.6393 60.6768 38.6868 61.2675 37.5152C61.4805 37.0927 61.6921 36.4202 61.8119 34.9378C61.9358 33.4059 61.939 31.4112 61.939 28.4121V21.04C61.939 18.0409 61.9358 16.0462 61.8119 14.5143C61.6921 13.0319 61.4805 12.3594 61.2675 11.9369C60.6768 10.7654 59.7343 9.81282 58.5751 9.21587C58.1571 9.00062 57.4917 8.7868 56.0248 8.66568C54.509 8.54052 52.5353 8.53723 49.5678 8.53723H41.8603C38.8603 8.53723 36.8636 8.54055 35.3311 8.66772C33.8471 8.79087 33.1762 9.00831 32.7568 9.22625C31.5905 9.83223 30.6461 10.7985 30.0607 11.9844C29.8502 12.4109 29.6432 13.0915 29.5395 14.5927C29.4324 16.143 29.4534 18.1608 29.49 21.1925L29.532 24.6744L21.1537 24.7777L21.1097 21.1248C21.0756 18.3089 21.047 15.9412 21.1809 14.0027C21.321 11.9762 21.6552 10.0434 22.5629 8.20455C23.9443 5.40576 26.1732 3.12543 28.9255 1.69532C30.7339 0.755698 32.6421 0.394356 34.6455 0.228115C36.5617 0.0690985 38.9047 0.0691527 41.6912 0.0692164Z" fill="url(#paint1_radial_901_3770)"/>
<path fill-rule="evenodd" clip-rule="evenodd" d="M41.6912 0.0692164H49.7357C52.4911 0.0691532 54.8094 0.069099 56.7071 0.225796C58.6921 0.389705 60.583 0.745948 62.379 1.67082C65.1149 3.07963 67.3392 5.3276 68.7332 8.09255C69.6483 9.90771 70.0008 11.8186 70.163 13.8248C70.3181 15.7427 70.318 18.0857 70.3179 20.8704V28.5817C70.318 31.3665 70.3181 33.7094 70.163 35.6273C70.0008 37.6335 69.6483 39.5444 68.7332 41.3596C67.3392 44.1245 65.1149 46.3725 62.379 47.7813C60.583 48.7062 58.6921 49.0624 56.7071 49.2263C54.8094 49.383 52.491 49.383 49.7356 49.3829H25.7125C24.0251 49.3829 22.5024 48.3598 21.8494 46.7872C21.1965 45.2147 21.5408 43.3997 22.7229 42.1828L42.5612 21.7599L48.5405 27.6922L35.6962 40.9149H49.5678C52.5353 40.9149 54.509 40.9116 56.0248 40.7864C57.4917 40.6653 58.1571 40.4515 58.5751 40.2363C59.7343 39.6393 60.6768 38.6868 61.2675 37.5152C61.4805 37.0927 61.6921 36.4202 61.8119 34.9378C61.9358 33.4059 61.939 31.4112 61.939 28.4121V21.04C61.939 18.0409 61.9358 16.0462 61.8119 14.5143C61.6921 13.0319 61.4805 12.3594 61.2675 11.9369C60.6768 10.7654 59.7343 9.81282 58.5751 9.21587C58.1571 9.00062 57.4917 8.7868 56.0248 8.66568C54.509 8.54052 52.5353 8.53723 49.5678 8.53723H41.8603C38.8603 8.53723 36.8636 8.54055 35.3311 8.66772C33.8471 8.79087 33.1762 9.00831 32.7568 9.22625C31.5905 9.83223 30.6461 10.7985 30.0607 11.9844C29.8502 12.4109 29.6432 13.0915 29.5395 14.5927C29.4324 16.143 29.4534 18.1608 29.49 21.1925L29.532 24.6744L21.1537 24.7777L21.1097 21.1248C21.0756 18.3089 21.047 15.9412 21.1809 14.0027C21.321 11.9762 21.6552 10.0434 22.5629 8.20455C23.9443 5.40576 26.1732 3.12543 28.9255 1.69532C30.7339 0.755698 32.6421 0.394356 34.6455 0.228115C36.5617 0.0690985 38.9047 0.0691527 41.6912 0.0692164Z" fill="url(#paint2_radial_901_3770)"/>
<path fill-rule="evenodd" clip-rule="evenodd" d="M41.6912 0.0692164H49.7357C52.4911 0.0691532 54.8094 0.069099 56.7071 0.225796C58.6921 0.389705 60.583 0.745948 62.379 1.67082C65.1149 3.07963 67.3392 5.3276 68.7332 8.09255C69.6483 9.90771 70.0008 11.8186 70.163 13.8248C70.3181 15.7427 70.318 18.0857 70.3179 20.8704V28.5817C70.318 31.3665 70.3181 33.7094 70.163 35.6273C70.0008 37.6335 69.6483 39.5444 68.7332 41.3596C67.3392 44.1245 65.1149 46.3725 62.379 47.7813C60.583 48.7062 58.6921 49.0624 56.7071 49.2263C54.8094 49.383 52.491 49.383 49.7356 49.3829H25.7125C24.0251 49.3829 22.5024 48.3598 21.8494 46.7872C21.1965 45.2147 21.5408 43.3997 22.7229 42.1828L42.5612 21.7599L48.5405 27.6922L35.6962 40.9149H49.5678C52.5353 40.9149 54.509 40.9116 56.0248 40.7864C57.4917 40.6653 58.1571 40.4515 58.5751 40.2363C59.7343 39.6393 60.6768 38.6868 61.2675 37.5152C61.4805 37.0927 61.6921 36.4202 61.8119 34.9378C61.9358 33.4059 61.939 31.4112 61.939 28.4121V21.04C61.939 18.0409 61.9358 16.0462 61.8119 14.5143C61.6921 13.0319 61.4805 12.3594 61.2675 11.9369C60.6768 10.7654 59.7343 9.81282 58.5751 9.21587C58.1571 9.00062 57.4917 8.7868 56.0248 8.66568C54.509 8.54052 52.5353 8.53723 49.5678 8.53723H41.8603C38.8603 8.53723 36.8636 8.54055 35.3311 8.66772C33.8471 8.79087 33.1762 9.00831 32.7568 9.22625C31.5905 9.83223 30.6461 10.7985 30.0607 11.9844C29.8502 12.4109 29.6432 13.0915 29.5395 14.5927C29.4324 16.143 29.4534 18.1608 29.49 21.1925L29.532 24.6744L21.1537 24.7777L21.1097 21.1248C21.0756 18.3089 21.047 15.9412 21.1809 14.0027C21.321 11.9762 21.6552 10.0434 22.5629 8.20455C23.9443 5.40576 26.1732 3.12543 28.9255 1.69532C30.7339 0.755698 32.6421 0.394356 34.6455 0.228115C36.5617 0.0690985 38.9047 0.0691527 41.6912 0.0692164Z" fill="url(#paint3_radial_901_3770)"/>
<path fill-rule="evenodd" clip-rule="evenodd" d="M15.2387 61.2094C16.7545 61.3345 18.7282 61.3378 21.6957 61.3378H29.5325C32.2383 61.3378 34.0379 61.3351 35.4241 61.2305C36.7675 61.1291 37.3836 60.9496 37.7694 60.7708C39.11 60.1493 40.1854 59.0624 40.8004 57.7076C40.9774 57.3176 41.155 56.695 41.2553 55.3373C41.3588 53.9363 41.3615 52.1177 41.3615 49.383H49.7404L49.7404 49.5375C49.7405 52.077 49.7405 54.2139 49.611 55.9677C49.4756 57.8002 49.1819 59.5515 48.4162 61.2384C46.9649 64.4357 44.4268 67.0008 41.2631 68.4675C39.594 69.2414 37.8611 69.5382 36.0479 69.675C34.3125 69.8059 32.1981 69.8059 29.6853 69.8058L21.5278 69.8058C18.7724 69.8059 16.4541 69.806 14.5564 69.6493C12.5714 69.4854 10.6805 69.1291 8.88448 68.2042C6.14862 66.7954 3.92431 64.5475 2.53032 61.7825C1.61517 59.9673 1.26268 58.0564 1.1005 56.0503C0.945447 54.1324 0.945503 51.7894 0.945566 49.0046V41.2933C0.945503 38.5086 0.945447 36.1656 1.1005 34.2477C1.26268 32.2416 1.61518 30.3306 2.53032 28.5155C3.92431 25.7505 6.14862 23.5026 8.88448 22.0938C10.6805 21.1689 12.5714 20.8126 14.5564 20.6487C16.4541 20.492 18.7725 20.4921 21.5279 20.4921H45.551C47.8647 20.4921 49.7404 22.3878 49.7404 24.7262C49.7404 27.0645 47.8647 28.9602 45.551 28.9602H21.6957C18.7282 28.9602 16.7545 28.9634 15.2387 29.0886C13.7718 29.2097 13.1064 29.4236 12.6884 29.6388C11.5292 30.2358 10.5867 31.1883 9.99598 32.3599C9.783 32.7823 9.57143 33.4548 9.45158 34.9373C9.32774 36.4692 9.32448 38.4638 9.32448 41.4629V48.8351C9.32448 51.8341 9.32774 53.8288 9.45158 55.3607C9.57143 56.8432 9.783 57.5157 9.99598 57.9381C10.5867 59.1097 11.5292 60.0622 12.6884 60.6592C13.1064 60.8744 13.7718 61.0883 15.2387 61.2094Z" fill="url(#paint4_linear_901_3770)"/>
<path fill-rule="evenodd" clip-rule="evenodd" d="M15.2387 61.2094C16.7545 61.3345 18.7282 61.3378 21.6957 61.3378H29.5325C32.2383 61.3378 34.0379 61.3351 35.4241 61.2305C36.7675 61.1291 37.3836 60.9496 37.7694 60.7708C39.11 60.1493 40.1854 59.0624 40.8004 57.7076C40.9774 57.3176 41.155 56.695 41.2553 55.3373C41.3588 53.9363 41.3615 52.1177 41.3615 49.383H49.7404L49.7404 49.5375C49.7405 52.077 49.7405 54.2139 49.611 55.9677C49.4756 57.8002 49.1819 59.5515 48.4162 61.2384C46.9649 64.4357 44.4268 67.0008 41.2631 68.4675C39.594 69.2414 37.8611 69.5382 36.0479 69.675C34.3125 69.8059 32.1981 69.8059 29.6853 69.8058L21.5278 69.8058C18.7724 69.8059 16.4541 69.806 14.5564 69.6493C12.5714 69.4854 10.6805 69.1291 8.88448 68.2042C6.14862 66.7954 3.92431 64.5475 2.53032 61.7825C1.61517 59.9673 1.26268 58.0564 1.1005 56.0503C0.945447 54.1324 0.945503 51.7894 0.945566 49.0046V41.2933C0.945503 38.5086 0.945447 36.1656 1.1005 34.2477C1.26268 32.2416 1.61518 30.3306 2.53032 28.5155C3.92431 25.7505 6.14862 23.5026 8.88448 22.0938C10.6805 21.1689 12.5714 20.8126 14.5564 20.6487C16.4541 20.492 18.7725 20.4921 21.5279 20.4921H45.551C47.8647 20.4921 49.7404 22.3878 49.7404 24.7262C49.7404 27.0645 47.8647 28.9602 45.551 28.9602H21.6957C18.7282 28.9602 16.7545 28.9634 15.2387 29.0886C13.7718 29.2097 13.1064 29.4236 12.6884 29.6388C11.5292 30.2358 10.5867 31.1883 9.99598 32.3599C9.783 32.7823 9.57143 33.4548 9.45158 34.9373C9.32774 36.4692 9.32448 38.4638 9.32448 41.4629V48.8351C9.32448 51.8341 9.32774 53.8288 9.45158 55.3607C9.57143 56.8432 9.783 57.5157 9.99598 57.9381C10.5867 59.1097 11.5292 60.0622 12.6884 60.6592C13.1064 60.8744 13.7718 61.0883 15.2387 61.2094Z" fill="url(#paint5_radial_901_3770)"/>
<defs>
<linearGradient id="paint0_linear_901_3770" x1="34" y1="49" x2="34.5606" y2="0.00641514" gradientUnits="userSpaceOnUse">
<stop offset="0.43118" stop-color="#498FFD"/>
<stop offset="1" stop-color="#16D1D6"/>
</linearGradient>
<radialGradient id="paint1_radial_901_3770" cx="0" cy="0" r="1" gradientUnits="userSpaceOnUse" gradientTransform="translate(20.5 15) rotate(-15.5725) scale(31.6623 31.6129)">
<stop stop-color="#18CFD7"/>
<stop offset="1" stop-color="#18CFD7" stop-opacity="0"/>
</radialGradient>
<radialGradient id="paint2_radial_901_3770" cx="0" cy="0" r="1" gradientUnits="userSpaceOnUse" gradientTransform="translate(39 29) rotate(152.354) scale(11.8533 11.8348)">
<stop stop-color="#4990FE"/>
<stop offset="0.353962" stop-color="#4990FE"/>
<stop offset="1" stop-color="#4990FE" stop-opacity="0"/>
</radialGradient>
<radialGradient id="paint3_radial_901_3770" cx="0" cy="0" r="1" gradientUnits="userSpaceOnUse" gradientTransform="translate(24.5 45) rotate(-45.9392) scale(21.5697 21.536)">
<stop stop-color="#4990FE"/>
<stop offset="0.405688" stop-color="#4990FE"/>
<stop offset="1" stop-color="#4990FE" stop-opacity="0"/>
</radialGradient>
<linearGradient id="paint4_linear_901_3770" x1="50" y1="70.0001" x2="50.1803" y2="20.0007" gradientUnits="userSpaceOnUse">
<stop stop-color="#2950FF"/>
<stop offset="0.821717" stop-color="#498FFD"/>
</linearGradient>
<radialGradient id="paint5_radial_901_3770" cx="0" cy="0" r="1" gradientUnits="userSpaceOnUse" gradientTransform="translate(50 49.0001) rotate(129.289) scale(21.319 21.0947)">
<stop offset="0.337169" stop-color="#2950FF"/>
<stop offset="0.792226" stop-color="#2950FF" stop-opacity="0"/>
</radialGradient>
</defs>
</svg>
