<?xml version="1.0" encoding="utf-8"?>
<!-- Generator: Adobe Illustrator 21.0.0, SVG Export Plug-In . SVG Version: 6.00 Build 0)  -->
<svg version="1.1" id="Слой_1" xmlns="http://www.w3.org/2000/svg" xmlns:xlink="http://www.w3.org/1999/xlink" x="0px" y="0px"
	 viewBox="0 0 25 20" style="enable-background:new 0 0 25 20;" xml:space="preserve">
<style type="text/css">
	.st0{fill:#9eaacc;}
</style>
<path class="st0" d="M24.7,18.9l-9.9-6.6c1-1.7,1.3-3.6,1-5.5C15,2.5,10.9-0.4,6.6,0.4C2.2,1.2-0.7,5.3,0.1,9.6
	c0.7,3.8,4.1,6.5,7.8,6.5c0.5,0,0.9,0,1.4-0.1c1.9-0.3,3.6-1.3,4.7-2.8l9.9,6.6c0.1,0.1,0.2,0.1,0.3,0.1c0.2,0,0.4-0.1,0.5-0.3
	C25.1,19.4,25,19.1,24.7,18.9z M9.2,14.9C5.5,15.6,2,13.1,1.3,9.4C0.6,5.7,3.1,2.2,6.8,1.5C7.2,1.5,7.6,1.4,8,1.4
	c3.2,0,6.1,2.3,6.7,5.6c0.3,1.8-0.1,3.6-1.1,5.1C12.5,13.6,11,14.6,9.2,14.9z"/>
</svg>
