<?xml version="1.0" encoding="utf-8"?>
<!-- Generator: Adobe Illustrator 21.0.0, SVG Export Plug-In . SVG Version: 6.00 Build 0)  -->
<svg version="1.1" id="Слой_1" xmlns="http://www.w3.org/2000/svg" xmlns:xlink="http://www.w3.org/1999/xlink" x="0px" y="0px"
	 viewBox="0 0 23 19" style="enable-background:new 0 0 23 19;" xml:space="preserve">
<style type="text/css">
	.st0{fill:#859098;}
</style>
<path class="st0" d="M22.9,17.5l-9-6c0.9-1.5,1.2-3.2,0.9-5c-0.7-4-4.6-6.6-8.6-5.9c-1.9,0.4-3.6,1.4-4.7,3C0.4,5.2,0,7.1,0.3,9.1
	c0.6,3.5,3.7,6,7.2,6c0.4,0,0.9,0,1.3-0.1c1.8-0.3,3.3-1.3,4.3-2.6l9,6c0.1,0.1,0.2,0.1,0.3,0.1c0.2,0,0.4-0.1,0.5-0.3
	C23.3,18,23.2,17.6,22.9,17.5z M8.7,13.8c-3.3,0.6-6.5-1.6-7.2-5c-0.3-1.6,0.1-3.3,1-4.6c0.9-1.4,2.3-2.3,4-2.6
	c0.4-0.1,0.7-0.1,1.1-0.1c2.9,0,5.5,2.1,6.1,5.1C14.2,10,12,13.2,8.7,13.8z"/>
</svg>
